<svg width="32" height="32" viewBox="0 0 24 24" fill="none" xmlns="http://www.w3.org/2000/svg">
  <path d="M12 5a3 3 0 1 0-5.997.142 4 4 0 0 0-2.526 5.77 4 4 0 0 0 .556 6.588 4 4 0 0 0 7.636 2.106 3.2 3.2 0 0 0 .164-.546c.071-.18.11-.384.11-.635 0-.635-.254-1.288-.737-1.819a3.3 3.3 0 0 0-.604-.454 3 3 0 0 0 2.764-4.798 3.532 3.532 0 0 0-.5-1.05A4.01 4.01 0 0 0 12 5Z" stroke="#4F46E5" stroke-width="1.5" stroke-linecap="round" stroke-linejoin="round" fill="#4F46E5" fill-opacity="0.1"/>
  <path d="m12 5 2 3m-4 0 2-3m-2 3v2m0 0 4-2m-4 2-4-2" stroke="#4F46E5" stroke-width="1.5" stroke-linecap="round" stroke-linejoin="round"/>
</svg> 